<svg width="24" height="24" viewBox="0 0 24 24" fill="none" xmlns="http://www.w3.org/2000/svg">
    <path d="M12 2C6.48 2 2 6.48 2 12C2 17.52 6.48 22 12 22C17.52 22 22 17.52 22 12C22 6.48 17.52 2 12 2ZM12 20C7.59 20 4 16.41 4 12C4 7.59 7.59 4 12 4C16.41 4 20 7.59 20 12C20 16.41 16.41 20 12 20Z" fill="currentColor"/>
    <path d="M12 6C10.9 6 10 6.9 10 8C10 9.1 10.9 10 12 10C13.1 10 14 9.1 14 8C14 6.9 13.1 6 12 6Z" fill="currentColor"/>
    <path d="M12 14C10.9 14 10 14.9 10 16C10 17.1 10.9 18 12 18C13.1 18 14 17.1 14 16C14 14.9 13.1 14 12 14Z" fill="currentColor"/>
    <path d="M8 10C6.9 10 6 10.9 6 12C6 13.1 6.9 14 8 14C9.1 14 10 13.1 10 12C10 10.9 9.1 10 8 10Z" fill="currentColor"/>
    <path d="M16 10C14.9 10 14 10.9 14 12C14 13.1 14.9 14 16 14C17.1 14 18 13.1 18 12C18 10.9 17.1 10 16 10Z" fill="currentColor"/>
</svg>